<svg width="512" height="512" viewBox="0 0 512 512" fill="none" xmlns="http://www.w3.org/2000/svg">
  <defs>
    <filter id="squircleShadow" x="-10%" y="-10%" width="120%" height="120%" filterUnits="userSpaceOnUse">
      <feDropShadow dx="0" dy="16" stdDeviation="20" flood-color="#000000" flood-opacity="0.08" />
    </filter>
    <filter id="pageShadow" x="-10%" y="-10%" width="120%" height="120%" filterUnits="userSpaceOnUse">
      <feDropShadow dx="0" dy="8" stdDeviation="12" flood-color="#1B254B" flood-opacity="0.12" />
    </filter>
    <linearGradient id="bookmarkGrad" x1="0%" y1="0%" x2="100%" y2="100%">
      <stop offset="0%" stop-color="#9CB3F9" />
      <stop offset="100%" stop-color="#6F8BE8" />
    </linearGradient>
    <linearGradient id="leftCoverGrad" x1="0%" y1="0%" x2="100%" y2="100%">
      <stop offset="0%" stop-color="#5B68A5" />
      <stop offset="100%" stop-color="#3D487E" />
    </linearGradient>
    <filter id="curlShadow" x="-20%" y="-20%" width="140%" height="140%">
      <feDropShadow dx="-4" dy="-4" stdDeviation="6" flood-color="#000000" flood-opacity="0.15" />
    </filter>
  </defs>

  <rect width="512" height="512" rx="112" fill="#F8FAFC" />
  <rect x="40" y="40" width="432" height="432" rx="88" fill="#FFFFFF" filter="url(#squircleShadow)" />
  <rect x="104" y="96" width="240" height="280" rx="36" fill="url(#leftCoverGrad)" filter="url(#pageShadow)" />
  <path d="M140 84 V196 L166 172 L192 196 V84 H140 Z" fill="url(#bookmarkGrad)" filter="url(#pageShadow)" />
  <path d="M128 108 H344 C364 108 376 120 376 140 V312 L312 376 H164 C144 376 128 360 128 340 V108 Z" fill="#FFFFFF" filter="url(#pageShadow)" />
  <path d="M312 376 C336 376 376 348 376 312 H332 C320 312 312 320 312 332 V376 Z" fill="#F1F5F9" filter="url(#curlShadow)" />
  <line x1="160" y1="152" x2="336" y2="152" stroke="#E2E8F0" stroke-width="4" stroke-linecap="round" />
  <line x1="300" y1="184" x2="336" y2="184" stroke="#E2E8F0" stroke-width="4" stroke-linecap="round" />
  <line x1="160" y1="288" x2="280" y2="288" stroke="#E2E8F0" stroke-width="4" stroke-linecap="round" />
  <line x1="160" y1="320" x2="260" y2="320" stroke="#E2E8F0" stroke-width="4" stroke-linecap="round" />
  <text x="252" y="278" text-anchor="middle" font-family="Georgia, 'Times New Roman', serif" font-weight="900" font-size="148" fill="#293144" letter-spacing="-2">O</text>
  <text x="256" y="440" text-anchor="middle" font-family="'Outfit', 'Inter', -apple-system, sans-serif" font-weight="700" font-size="44" fill="#293144" letter-spacing="-1">OpenNotes</text>
</svg>
